Coordinates
version=1
nRows=26
nColumns=30
inDegrees=yes

Units are S.I. units (second, meters, Newtons, ...)
Angles are in degrees.

endheader
time	floatyaw	floatroll	floatpitch	floatx	floaty	floatz	pro_sup_l	deviation_l	flexion_l	cmc_flexion_l	cmc_abduction_l	mp_flexion_l	ip_flexion_l	2mcp_flexion_l	2mcp_abduction_l	2pm_flexion_l	2md_flexion_l	3mcp_flexion_l	3mcp_abduction_l	3pm_flexion_l	3md_flexion_l	4mcp_flexion_l	4mcp_abduction_l	4pm_flexion_l	4md_flexion_l	5mcp_flexion_l	5mcp_abduction_l	5pm_flexion_l	5md_flexion_l
-0.995000	3.267846	-2.569086	98.473996	-0.106214	-0.195126	-0.031985	88.019252	0.736680	-1.468808	19.081418	0.942451	-21.603335	-34.958785	36.095378	8.830854	46.460606	32.653710	23.038699	4.790225	45.318678	30.503912	14.039139	-4.612619	58.768745	40.286685	11.347088	-9.510991	57.480671	40.385933
-0.985000	3.267846	-2.569086	98.473996	-0.106194	-0.195110	-0.031968	88.027306	0.731078	-1.461557	19.057599	0.947934	-21.601582	-34.956097	36.107452	8.830215	46.491832	32.671388	23.039161	4.790922	45.355874	30.524064	14.050655	-4.613659	58.779895	40.297293	11.396263	-9.519803	57.495989	40.381395
-0.975000	3.267846	-2.569086	98.473996	-0.106171	-0.195084	-0.031948	88.035462	0.723150	-1.447856	19.031606	0.961784	-21.608074	-34.958889	36.121627	8.828674	46.523386	32.688041	23.038565	4.790600	45.391791	30.542534	14.063054	-4.617413	58.802588	40.310523	11.444488	-9.520734	57.510021	40.374971
-0.965000	3.267846	-2.569086	98.473996	-0.106143	-0.195047	-0.031925	88.048662	0.717414	-1.428143	19.005003	0.977468	-21.621676	-34.967215	36.130556	8.826034	46.549653	32.701469	23.040222	4.788639	45.421732	30.556288	14.077773	-4.623661	58.833393	40.324208	11.489890	-9.510882	57.517024	40.364826
-0.955000	3.267846	-2.569086	98.473996	-0.106107	-0.194998	-0.031900	88.068869	0.717581	-1.405365	18.980291	0.989198	-21.638990	-34.979704	36.128304	8.822293	46.567392	32.711100	23.046697	4.784979	45.443123	30.563863	14.096809	-4.631522	58.866321	40.335019	11.530519	-9.490104	57.514247	40.350774
-0.945000	3.267846	-2.569086	98.473996	-0.106062	-0.194941	-0.031870	88.094047	0.725407	-1.384385	18.959862	0.993920	-21.655790	-34.994061	36.113345	8.817521	46.576681	32.717780	23.058398	4.780194	45.455950	30.565773	14.120844	-4.639549	58.894030	40.339538	11.565102	-9.461261	57.502768	40.334417
-0.935000	3.267846	-2.569086	98.473996	-0.106005	-0.194880	-0.031837	88.119553	0.740687	-1.370594	18.944988	0.991945	-21.668815	-35.007923	36.089465	8.811780	46.580331	32.722939	23.073414	4.775364	45.462102	30.564021	14.148171	-4.646202	58.910066	40.335772	11.594403	-9.429330	57.486266	40.318178
-0.925000	3.267846	-2.569086	98.473996	-0.105934	-0.194818	-0.031799	88.140790	0.762077	-1.368311	18.935407	0.986100	-21.676980	-35.019716	36.064117	8.805107	46.582372	32.727754	23.088701	4.771722	45.464167	30.560927	14.175325	-4.650507	58.911613	40.324332	11.621730	-9.399583	57.468755	40.303836
-0.915000	3.267846	-2.569086	98.473996	-0.105848	-0.194758	-0.031754	88.155284	0.788079	-1.379514	18.929633	0.980021	-21.681413	-35.029065	36.045149	8.797517	46.586465	32.732759	23.101824	4.770147	45.464302	30.557973	14.198751	-4.652423	58.901208	40.308478	11.651398	-9.375622	57.452851	40.291577
-0.905000	3.267846	-2.569086	98.473996	-0.105749	-0.194696	-0.031702	88.163087	0.817653	-1.403196	18.925755	0.976571	-21.684408	-35.036578	36.037476	8.788980	46.594862	32.737969	23.112060	4.770711	45.463677	30.555326	14.216189	-4.652663	58.885876	40.292802	11.685696	-9.358194	57.439362	40.280118
-0.895000	3.267846	-2.569086	98.473996	-0.105635	-0.194630	-0.031645	88.165764	0.850184	-1.435463	18.922353	0.977241	-21.687938	-35.043184	36.041060	8.779406	46.608013	32.743239	23.120174	4.772579	45.462561	30.552225	14.227020	-4.652128	58.873675	40.281143	11.722621	-9.345349	57.427728	40.267554
-0.885000	3.267846	-2.569086	98.473996	-0.105510	-0.194559	-0.031583	88.165073	0.884874	-1.470483	18.919151	0.982815	-21.692489	-35.049437	36.050794	8.768736	46.624654	32.748536	23.127295	4.774311	45.460781	30.547823	14.231741	-4.651363	58.869433	40.274857	11.756448	-9.333774	57.416437	40.252230
-0.875000	3.267846	-2.569086	98.473996	-0.105376	-0.194481	-0.031521	88.162346	0.920085	-1.502226	18.917085	0.994659	-21.696758	-35.055162	36.058263	8.757152	46.642250	32.753961	23.133940	4.774418	45.458048	30.541746	14.231357	-4.650385	58.872226	40.272348	11.781102	-9.320478	57.403161	40.233182
-0.865000	3.267846	-2.569086	98.473996	-0.105232	-0.194399	-0.031459	88.158878	0.953309	-1.526487	18.917682	1.015350	-21.698272	-35.059561	36.054859	8.745210	46.657760	32.759555	23.139841	4.771908	45.453803	30.534000	14.227334	-4.648944	58.876146	40.270055	11.793975	-9.303908	57.384945	40.210211
-0.855000	3.267846	-2.569086	98.473996	-0.105081	-0.194318	-0.031396	88.156631	0.982002	-1.542150	18.922045	1.047638	-21.694645	-35.061714	36.035159	8.733701	46.668615	32.765081	23.144341	4.766658	45.446758	30.524453	14.222017	-4.646983	58.873828	40.264247	11.797510	-9.284143	57.358670	40.183784
-0.845000	3.267846	-2.569086	98.473996	-0.104920	-0.194241	-0.031329	88.158187	1.004731	-1.550795	18.929987	1.092012	-21.684948	-35.061226	35.999284	8.723209	46.673670	32.770019	23.146672	4.759529	45.434976	30.512622	14.218687	-4.644941	58.860625	40.252668	11.797631	-9.262590	57.321776	40.154937
-0.835000	3.267846	-2.569086	98.473996	-0.104751	-0.194174	-0.031258	88.165449	1.021752	-1.554722	18.939872	1.144547	-21.670672	-35.058845	35.953254	8.713691	46.673907	32.773938	23.145885	4.752173	45.417341	30.498353	14.220610	-4.643652	58.837302	40.235339	11.800465	-9.241746	57.273381	40.125327
-0.825000	3.267846	-2.569086	98.473996	-0.104578	-0.194122	-0.031183	88.177845	1.034610	-1.554648	18.949255	1.196952	-21.655842	-35.056829	35.907234	8.704436	46.672805	32.777189	23.140824	4.746560	45.396245	30.483164	14.229488	-4.643907	58.810326	40.214421	11.809627	-9.225047	57.216029	40.097559
-0.815000	3.267846	-2.569086	98.473996	-0.104404	-0.194091	-0.031107	88.191644	1.045221	-1.548748	18.955904	1.239211	-21.646024	-35.058781	35.872378	8.694540	46.676212	32.781517	23.130721	4.744301	45.379640	30.471173	14.244511	-4.645986	58.790093	40.193476	11.825548	-9.216168	57.157692	40.075597
-0.805000	3.267846	-2.569086	98.473996	-0.104238	-0.194082	-0.031034	88.201255	1.055089	-1.533868	18.958537	1.263374	-21.646342	-35.068659	35.857430	8.683596	46.691321	32.789976	23.116352	4.746060	45.380058	30.468458	14.262975	-4.649500	58.787827	40.176621	11.846893	-9.217390	57.112526	40.064616
-0.795000	3.267846	-2.569086	98.473996	-0.104086	-0.194095	-0.030968	88.201801	1.064967	-1.508252	18.956866	1.266449	-21.659128	-35.089034	35.866318	8.672125	46.724273	32.805713	23.100983	4.751309	45.409778	30.480774	14.282339	-4.653678	58.811857	40.167886	11.873115	-9.227654	57.098362	40.069671
-0.785000	3.267846	-2.569086	98.473996	-0.103955	-0.194127	-0.030912	88.191185	1.074781	-1.474035	18.951113	1.251216	-21.682235	-35.119350	35.897613	8.661394	46.776752	32.829950	23.090180	4.758589	45.474200	30.510893	14.302469	-4.657922	58.864101	40.170844	11.906711	-9.241683	57.130346	40.093237
-0.775000	3.267846	-2.569086	98.473996	-0.103853	-0.194171	-0.030866	88.170350	1.083680	-1.437726	18.941532	1.225001	-21.709106	-35.155355	35.945957	8.652757	46.843309	32.860407	23.090226	4.766107	45.567322	30.557275	14.326582	-4.662252	58.938080	40.188313	11.953699	-9.251227	57.212923	40.132784
-0.765000	3.267846	-2.569086	98.473996	-0.103782	-0.194221	-0.030831	88.142015	1.090389	-1.408148	18.928380	1.197010	-21.731021	-35.190496	36.004569	8.646962	46.911694	32.891527	23.105876	4.772363	45.672338	30.614785	14.360151	-4.667371	59.019788	40.221778	12.021345	-9.248181	57.334777	40.180184
-0.755000	3.267846	-2.569086	98.473996	-0.103741	-0.194270	-0.030806	88.109293	1.094039	-1.392871	18.912279	1.175064	-21.740777	-35.218839	36.067475	8.643768	46.966966	32.916792	23.138655	4.776506	45.767325	30.676786	14.408288	-4.674274	59.091661	40.270356	12.113549	-9.227907	57.470810	40.224053
-0.745000	3.267846	-2.569086	98.473996	-0.103725	-0.194314	-0.030793	88.075254	1.095166	-1.395106	18.894540	1.162780	-21.736002	-35.237878	36.130415	8.642009	46.997539	32.931800	23.186484	4.778358	45.833127	30.737186	14.472999	-4.683673	59.138244	40.329692	12.226319	-9.190899	57.591305	40.254262
